<svg version="1.1" id="Layer_1" xmlns="http://www.w3.org/2000/svg" xmlns:xlink="http://www.w3.org/1999/xlink" x="0px" y="0px"
	 width="100%" viewBox="0 0 512 512" enable-background="new 0 0 512 512" xml:space="preserve">
<path fill="#000000" opacity="1.000000" stroke="none" 
	d="
M133.330627,383.238220 
	C127.225433,398.246948 121.138397,412.851471 115.350357,427.573547 
	C113.767990,431.598389 111.532463,433.067963 107.167313,433.003876 
	C91.005981,432.766724 74.838852,432.932159 58.673904,432.925629 
	C56.884380,432.924927 54.983746,433.342957 52.919712,431.417358 
	C55.623108,425.310059 58.357750,418.973175 61.218353,412.693665 
	C101.266266,324.781036 139.670456,236.142487 178.262100,147.587143 
	C180.043091,143.500336 182.179840,139.518585 182.878357,134.969666 
	C183.340668,131.958984 185.358444,130.590103 188.576416,130.611115 
	C203.407654,130.707993 218.240601,130.747192 233.071121,130.609833 
	C236.879929,130.574539 238.260254,132.834183 239.526917,135.723297 
	C249.622772,158.750656 259.767334,181.756668 269.868256,204.781799 
	C278.229767,223.841934 286.289520,243.040451 295.010498,261.934143 
	C298.960236,270.491241 300.667694,279.012085 300.214386,288.418579 
	C299.570251,301.783386 301.792847,300.097321 288.495361,300.180054 
	C279.996552,300.232941 271.484375,299.906677 263.002899,300.292969 
	C258.192230,300.512115 255.940933,298.646332 254.098969,294.359863 
	C240.949677,263.759979 227.564362,233.261459 214.224457,202.743637 
	C213.458176,200.990631 213.178970,198.483902 210.647873,198.455383 
	C208.107956,198.426773 207.786972,200.874405 207.046448,202.664581 
	C195.588821,230.363129 184.136826,258.064026 172.707230,285.774139 
	C170.406204,291.352814 170.822662,291.992493 177.020950,292.010834 
	C194.185745,292.061584 211.352249,292.161041 228.514740,291.958405 
	C233.138168,291.903839 235.714630,293.494812 237.745148,297.719116 
	C243.155243,308.974487 249.086166,319.978882 254.756332,331.110382 
	C255.788467,333.136627 257.133240,335.084656 257.382751,337.441986 
	C255.217880,338.962128 252.992996,338.349854 250.915466,338.352631 
	C219.918625,338.393829 188.920959,338.480957 157.925583,338.262329 
	C153.253799,338.229370 150.985855,340.040649 149.374847,344.054474 
	C144.165314,357.033875 138.779343,369.942474 133.330627,383.238220 
z"/>
<path fill="#000000" opacity="1.000000" stroke="none" 
	d="
M382.699097,247.253235 
	C370.628662,231.699921 375.528839,210.898712 392.714691,203.511017 
	C404.900024,198.272888 420.221008,203.758987 426.702240,215.681168 
	C433.459137,228.110504 429.773132,244.506012 418.015808,251.923477 
	C414.173523,254.347504 413.070465,256.993042 413.161713,261.232605 
	C413.401978,272.393066 413.178284,283.562775 413.280670,294.727509 
	C413.309479,297.869324 412.633270,300.649200 410.742249,303.143433 
	C410.340271,303.673645 410.063019,304.310822 409.612671,304.790039 
	C397.887451,317.266998 395.015625,332.043701 396.078644,348.829071 
	C397.245453,367.253479 396.501892,385.811218 396.246338,404.306091 
	C396.167053,410.043823 397.313354,415.048798 400.493805,419.826355 
	C402.958466,423.528717 405.414032,427.319458 406.920776,431.495209 
	C405.374756,433.393463 403.428986,432.959930 401.670135,432.961761 
	C364.340179,433.000702 327.009766,432.924438 289.680725,433.119965 
	C284.699738,433.146027 283.533844,431.377197 283.564270,426.730957 
	C283.740997,399.734497 283.656860,372.736206 283.641754,345.738556 
	C283.637695,338.423248 283.481598,337.919556 276.508850,338.524780 
	C270.797241,339.020538 268.378235,336.941956 267.668518,331.448914 
	C267.096497,327.021698 265.570312,322.725708 264.819122,318.311646 
	C263.934509,313.113495 265.249573,311.713196 270.577484,311.648224 
	C287.053925,311.447327 303.515411,311.958099 319.977478,312.614227 
	C326.620453,312.879059 326.661072,312.668793 326.663910,306.008667 
	C326.678101,272.844879 326.623352,239.680923 326.746155,206.517593 
	C326.760040,202.766296 325.852051,200.547653 322.227814,198.738052 
	C309.250916,192.258636 302.278687,177.698227 304.906067,163.618408 
	C307.596771,149.199249 319.295013,138.456436 334.074585,136.832077 
	C350.571930,135.018906 367.703156,150.286285 368.419678,166.811798 
	C369.051056,181.372864 363.026672,191.854752 350.587891,198.868347 
	C348.237732,200.193481 347.290771,201.699860 347.294373,204.368988 
	C347.352600,247.365128 346.705444,290.374481 347.599670,333.352142 
	C348.049927,354.994843 347.752930,376.628571 348.221527,398.260956 
	C348.385437,405.826569 351.169800,409.346313 357.638123,409.778473 
	C368.897034,410.530701 372.318970,408.357269 373.913147,399.909271 
	C374.475800,396.927856 374.657562,393.982025 374.657013,390.984833 
	C374.652527,367.153564 374.720032,343.321991 374.592834,319.491394 
	C374.572571,315.692017 375.757965,312.852478 378.367950,310.162720 
	C383.120331,305.265015 387.471130,299.977142 392.232544,295.088837 
	C395.401215,291.835663 394.938782,287.913116 394.447357,284.262238 
	C393.417023,276.607849 393.709045,268.953064 393.887268,261.318298 
	C393.990021,256.916199 392.799469,254.024841 388.707031,252.224091 
	C386.422791,251.218979 384.549377,249.474533 382.699097,247.253235 
M326.057159,376.500000 
	C326.048798,367.516815 326.182373,358.530792 326.000549,349.551117 
	C325.685089,333.970917 328.990784,336.582520 312.037140,336.207153 
	C308.216949,336.122589 307.218475,337.842773 307.234680,341.339966 
	C307.326508,361.135742 307.279846,380.932129 307.261200,400.728333 
	C307.259460,402.592896 307.464630,404.365082 308.526520,405.968933 
	C311.026947,409.745483 314.417480,411.085876 318.851776,410.005524 
	C323.142609,408.960114 325.597412,406.102417 325.778595,401.938507 
	C326.132538,393.803619 325.995361,385.647400 326.057159,376.500000 
M338.057526,156.377518 
	C337.064636,156.359512 336.060669,156.236969 335.080688,156.340927 
	C329.754211,156.905960 325.006592,161.500534 323.657562,167.325577 
	C322.570862,172.018005 324.801178,177.160156 329.233704,180.181854 
	C334.215424,183.577957 339.097290,183.540222 343.928955,179.882263 
	C347.719116,177.012802 350.157928,173.091904 349.449310,168.348801 
	C348.551422,162.339096 344.905090,158.176178 338.057526,156.377518 
M411.699738,227.022568 
	C410.733185,222.194489 407.220612,219.791489 402.864685,219.658478 
	C398.863739,219.536316 395.843384,222.049789 394.224976,226.050079 
	C392.593048,230.083984 393.911896,233.300903 396.798401,235.882507 
	C399.336731,238.152725 402.372406,239.560410 405.930511,237.784607 
	C410.056610,235.725342 412.349762,232.624435 411.699738,227.022568 
z"/>
</svg>